<svg xmlns="http://www.w3.org/2000/svg" width="128" height="128" viewBox="0 0 128 128" fill="none">
  <rect width="128" height="128" rx="24" fill="#1a1a2e"/>
  <path d="M64 24C42.46 24 25 41.46 25 63C25 84.54 42.46 102 64 102C85.54 102 103 84.54 103 63C103 41.46 85.54 24 64 24ZM64 32C81.12 32 95 45.88 95 63C95 80.12 81.12 94 64 94C46.88 94 33 80.12 33 63C33 45.88 46.88 32 64 32Z" fill="#3B82F6"/>
  <path d="M64 44C53.51 44 45 52.51 45 63C45 73.49 53.51 82 64 82C74.49 82 83 73.49 83 63C83 52.51 74.49 44 64 44ZM64 52C70.07 52 75 56.93 75 63C75 69.07 70.07 74 64 74C57.93 74 53 69.07 53 63C53 56.93 57.93 52 64 52Z" fill="#3B82F6"/>
  <circle cx="64" cy="63" r="8" fill="#3B82F6"/>
</svg>
